<svg xmlns="http://www.w3.org/2000/svg" viewBox="0 0 1300 1000" role="img" aria-labelledby="title desc">
  <title id="title">Аксессуары</title>
  <desc id="desc">Зарядное устройство и кабель на белом фоне</desc>
  <rect width="1300" height="1000" fill="#ffffff"/>
  <ellipse cx="650" cy="830" rx="280" ry="32" fill="#e5e7eb"/>
  <rect x="470" y="300" width="250" height="360" rx="42" fill="#e2e8f0" stroke="#94a3b8" stroke-width="6"/>
  <rect x="535" y="250" width="34" height="62" rx="8" fill="#64748b"/>
  <rect x="620" y="250" width="34" height="62" rx="8" fill="#64748b"/>
  <rect x="520" y="420" width="150" height="92" rx="20" fill="#cbd5e1"/>
  <path d="M740 610c80 0 118-44 118-98 0-40-22-74-66-100l-12 22c36 22 54 47 54 78 0 38-28 70-94 70h-16v-56h-40v96h56z" fill="#475569"/>
  <rect x="720" y="580" width="34" height="18" rx="9" fill="#475569"/>
</svg>
