<svg xmlns="http://www.w3.org/2000/svg" viewBox="0 0 1300 1000" role="img" aria-labelledby="title desc">
  <title id="title">Смартфон</title>
  <desc id="desc">Смартфон на белом фоне</desc>
  <rect width="1300" height="1000" fill="#ffffff"/>
  <ellipse cx="650" cy="840" rx="210" ry="34" fill="#e5e7eb"/>
  <rect x="465" y="120" width="370" height="720" rx="74" fill="#e2e8f0" stroke="#94a3b8" stroke-width="8"/>
  <rect x="500" y="175" width="300" height="610" rx="44" fill="#f8fafc" stroke="#cbd5e1" stroke-width="3"/>
  <rect x="600" y="145" width="100" height="16" rx="8" fill="#94a3b8"/>
  <circle cx="650" cy="808" r="11" fill="#94a3b8"/>
  <rect x="525" y="230" width="250" height="260" rx="24" fill="#dbeafe"/>
  <circle cx="590" cy="300" r="38" fill="#1e293b"/>
  <circle cx="710" cy="300" r="38" fill="#1e293b"/>
  <circle cx="650" cy="395" r="38" fill="#1e293b"/>
  <circle cx="590" cy="300" r="20" fill="#0ea5e9"/>
  <circle cx="710" cy="300" r="20" fill="#0ea5e9"/>
  <circle cx="650" cy="395" r="20" fill="#0ea5e9"/>
  <path d="M650 540c45 0 82 33 82 74 0 26-15 49-39 62l-17 9-26 20-26-20-17-9c-24-13-39-36-39-62 0-41 37-74 82-74z" fill="#cbd5e1"/>
</svg>
